<svg width="45" height="45" viewBox="0 0 45 45" fill="none" xmlns="http://www.w3.org/2000/svg">
<rect x="0.302795" y="0.924316" width="44" height="44" rx="8" fill="#EDF8F9"/>
<g clip-path="url(#clip0_289_272)">
<path d="M33.8085 17.1537C33.5317 16.1257 32.7211 15.3152 31.6931 15.0384C29.8151 14.5244 22.3027 14.5244 22.3027 14.5244C22.3027 14.5244 14.7904 14.5244 12.9123 15.0186C11.9041 15.2954 11.0738 16.1257 10.797 17.1537C10.3028 19.0318 10.3028 22.9264 10.3028 22.9264C10.3028 22.9264 10.3028 26.8407 10.797 28.699C11.0738 29.727 11.8843 30.5375 12.9123 30.8143C14.8102 31.3283 22.3027 31.3283 22.3027 31.3283C22.3027 31.3283 29.8151 31.3283 31.6931 30.8341C32.7211 30.5573 33.5317 29.7468 33.8085 28.7188C34.3027 26.8407 34.3027 22.9461 34.3027 22.9461C34.3027 22.9461 34.3225 19.0318 33.8085 17.1537Z" fill="#FF0000"/>
<path d="M19.9106 26.5244L26.1577 22.9264L19.9106 19.3284V26.5244Z" fill="white"/>
</g>
<defs>
<clipPath id="clip0_289_272">
<rect x="10.3028" y="10.9243" width="24" height="24" rx="6" fill="white"/>
</clipPath>
</defs>
</svg>
