<svg width="45" height="45" viewBox="0 0 45 45" fill="none" xmlns="http://www.w3.org/2000/svg">
<rect x="0.302795" y="0.924316" width="44" height="44" rx="8" fill="#EDF8F9"/>
<path d="M34.2356 17.9764C34.178 16.6985 33.9715 15.8242 33.6787 15.0604C33.3714 14.2726 32.9633 13.6001 32.296 12.9371C31.6287 12.2742 30.9613 11.8563 30.174 11.5536C29.4106 11.2558 28.5368 11.054 27.2598 10.9964C25.9779 10.9387 25.5698 10.9243 22.3148 10.9243C19.0549 10.9243 18.6469 10.9387 17.3698 10.9964C16.0928 11.054 15.219 11.2606 14.4556 11.5536C13.6635 11.8611 12.9913 12.2694 12.3288 12.9371C11.6663 13.6049 11.2486 14.2726 10.9461 15.0604C10.6533 15.8242 10.4468 16.6985 10.3892 17.9764C10.3316 19.259 10.3172 19.6673 10.3172 22.9243C10.3172 26.1861 10.3316 26.5945 10.3892 27.8723C10.4468 29.1501 10.6533 30.0244 10.9461 30.7882C11.2534 31.576 11.6615 32.2486 12.3288 32.9115C12.9913 33.5792 13.6635 33.9924 14.4508 34.295C15.2142 34.5929 16.088 34.7946 17.365 34.8523C18.6469 34.9099 19.0549 34.9243 22.31 34.9243C25.5698 34.9243 25.9779 34.9099 27.255 34.8523C28.532 34.7946 29.4058 34.588 30.1692 34.295C30.9565 33.9876 31.6287 33.5792 32.2912 32.9115C32.9537 32.2438 33.3714 31.576 33.6739 30.7882C33.9715 30.0244 34.1732 29.1501 34.2308 27.8723C34.2884 26.5896 34.3028 26.1813 34.3028 22.9243C34.3028 19.6673 34.2932 19.2542 34.2356 17.9764ZM32.08 27.7762C32.0271 28.9483 31.8303 29.5872 31.6671 30.0052C31.451 30.5624 31.187 30.966 30.7645 31.3887C30.342 31.8114 29.9435 32.066 29.3818 32.2918C28.9593 32.4551 28.3208 32.6521 27.1542 32.7049C25.8915 32.7626 25.5122 32.777 22.3052 32.777C19.0982 32.777 18.7189 32.7626 17.4562 32.7049C16.2848 32.6521 15.6463 32.4551 15.2286 32.2918C14.6717 32.0756 14.2684 31.8114 13.8459 31.3887C13.4234 30.966 13.169 30.5672 12.9433 30.0052C12.7801 29.5824 12.5833 28.9435 12.5304 27.7762C12.4728 26.5128 12.4584 26.1333 12.4584 22.9243C12.4584 19.7154 12.4728 19.3358 12.5304 18.0724C12.5833 16.9003 12.7801 16.2614 12.9433 15.8435C13.1594 15.2862 13.4234 14.8827 13.8459 14.4599C14.2684 14.0372 14.6669 13.7826 15.2286 13.5568C15.6511 13.3935 16.2896 13.1965 17.4562 13.1437C18.7189 13.086 19.0982 13.0716 22.3052 13.0716C25.5122 13.0716 25.8915 13.086 27.1542 13.1437C28.3256 13.1965 28.9641 13.3935 29.3818 13.5568C29.9387 13.773 30.342 14.0372 30.7645 14.4599C31.187 14.8827 31.4414 15.2814 31.6671 15.8435C31.8303 16.2662 32.0271 16.9051 32.08 18.0724C32.1376 19.3358 32.152 19.7154 32.152 22.9243C32.152 26.1333 32.1328 26.5128 32.08 27.7762Z" fill="url(#paint0_linear_289_283)"/>
<path d="M22.3052 16.7561C18.8966 16.7561 16.1408 19.5183 16.1408 22.9242C16.1408 26.335 18.9014 29.0924 22.3052 29.0924C25.7091 29.0924 28.4697 26.3254 28.4697 22.9242C28.4697 19.5135 25.7139 16.7561 22.3052 16.7561ZM22.3052 26.9258C20.0968 26.9258 18.306 25.134 18.306 22.9242C18.306 20.7145 20.0968 18.9226 22.3052 18.9226C24.5137 18.9226 26.3044 20.7145 26.3044 22.9242C26.3044 25.134 24.5137 26.9258 22.3052 26.9258Z" fill="url(#paint1_linear_289_283)"/>
<path d="M28.7097 17.9573C29.5051 17.9573 30.15 17.312 30.15 16.5161C30.15 15.7202 29.5051 15.075 28.7097 15.075C27.9142 15.075 27.2694 15.7202 27.2694 16.5161C27.2694 17.312 27.9142 17.9573 28.7097 17.9573Z" fill="#BC30A0"/>
<path d="M10.3028 22.9243C10.3028 26.1861 10.3172 26.5945 10.3748 27.8723C10.4324 29.1501 10.6389 30.0244 10.9317 30.7882C11.239 31.576 11.6471 32.2486 12.3144 32.9115C12.9769 33.5744 13.6491 33.9924 14.4364 34.295C15.1998 34.5929 16.0735 34.7946 17.3506 34.8523C18.6325 34.9099 19.0405 34.9243 22.2956 34.9243C25.5554 34.9243 25.9635 34.9099 27.2406 34.8523C28.5176 34.7946 29.3914 34.588 30.1548 34.295C30.9421 33.9876 31.6143 33.5792 32.2768 32.9115C32.9393 32.2486 33.357 31.576 33.6595 30.7882C33.9571 30.0244 34.1588 29.1501 34.2164 27.8723C34.274 26.5896 34.2884 26.1813 34.2884 22.9243C34.2884 19.6625 34.274 19.2542 34.2164 17.9764C34.1588 16.6985 33.9523 15.8242 33.6595 15.0604C33.3522 14.2726 32.9441 13.6001 32.2768 12.9371C31.6191 12.2694 30.9469 11.8563 30.1596 11.5536C29.3962 11.2558 28.5224 11.054 27.2454 10.9964C25.9635 10.9387 25.5554 10.9243 22.3004 10.9243C19.0405 10.9243 18.6325 10.9387 17.3554 10.9964C16.0784 11.054 15.2046 11.2606 14.4412 11.5536C13.6539 11.8611 12.9817 12.2694 12.3192 12.9371C11.6567 13.6049 11.239 14.2726 10.9365 15.0604C10.6389 15.8242 10.4324 16.6985 10.3748 17.9764C10.3172 19.2542 10.3028 19.6625 10.3028 22.9243ZM12.468 22.9243C12.468 19.7202 12.4824 19.3358 12.54 18.0724C12.5929 16.9003 12.7897 16.2614 12.9529 15.8435C13.169 15.2862 13.433 14.8827 13.8555 14.4599C14.278 14.0372 14.6765 13.7826 15.2382 13.5568C15.6607 13.3935 16.2992 13.1965 17.4658 13.1437C18.7285 13.086 19.1078 13.0716 22.3148 13.0716C25.5218 13.0716 25.9011 13.086 27.1638 13.1437C28.3352 13.1965 28.9737 13.3935 29.3914 13.5568C29.9483 13.773 30.3516 14.0372 30.7741 14.4599C31.1966 14.8827 31.451 15.2814 31.6767 15.8435C31.8399 16.2662 32.0367 16.9051 32.0896 18.0724C32.1472 19.3358 32.1616 19.7154 32.1616 22.9243C32.1616 26.1333 32.1472 26.5128 32.0896 27.7762C32.0367 28.9483 31.8399 29.5872 31.6767 30.0052C31.4606 30.5624 31.1966 30.966 30.7741 31.3887C30.3516 31.8114 29.9531 32.066 29.3914 32.2918C28.9689 32.4551 28.3304 32.6521 27.1638 32.7049C25.9011 32.7626 25.5218 32.777 22.3148 32.777C19.1078 32.777 18.7285 32.7626 17.4658 32.7049C16.2944 32.6521 15.6559 32.4551 15.2382 32.2918C14.6813 32.0756 14.278 31.8114 13.8555 31.3887C13.433 30.966 13.1786 30.5672 12.9529 30.0052C12.7897 29.5824 12.5929 28.9435 12.54 27.7762C12.4776 26.5128 12.468 26.1285 12.468 22.9243Z" fill="url(#paint2_linear_289_283)"/>
<defs>
<linearGradient id="paint0_linear_289_283" x1="30.5983" y1="12.7595" x2="13.2358" y2="34.0319" gradientUnits="userSpaceOnUse">
<stop stop-color="#AE3DAE"/>
<stop offset="0.0468721" stop-color="#B23BA6"/>
<stop offset="0.1216" stop-color="#BD368E"/>
<stop offset="0.2148" stop-color="#CE2E69"/>
<stop offset="0.3216" stop-color="#E62335"/>
<stop offset="0.418" stop-color="#FF1800"/>
</linearGradient>
<linearGradient id="paint1_linear_289_283" x1="25.2451" y1="17.9771" x2="18.9377" y2="28.5756" gradientUnits="userSpaceOnUse">
<stop stop-color="#E12F6A"/>
<stop offset="0.1705" stop-color="#EA3751"/>
<stop offset="0.3563" stop-color="#F13D3E"/>
<stop offset="0.5467" stop-color="#F64133"/>
<stop offset="0.7469" stop-color="#F7422F"/>
<stop offset="0.7946" stop-color="#F74C2F"/>
<stop offset="0.8743" stop-color="#F7652F"/>
<stop offset="0.9757" stop-color="#F78F2E"/>
<stop offset="1" stop-color="#F79A2E"/>
</linearGradient>
<linearGradient id="paint2_linear_289_283" x1="27.7409" y1="9.93629" x2="17.1167" y2="35.2606" gradientUnits="userSpaceOnUse">
<stop offset="0.2341" stop-color="#9E35A5" stop-opacity="0"/>
<stop offset="0.4512" stop-color="#D42F7F" stop-opacity="0.5"/>
<stop offset="0.7524" stop-color="#F7772E"/>
<stop offset="0.9624" stop-color="#FEF780"/>
</linearGradient>
</defs>
</svg>
