<svg width="155" height="58" viewBox="0 0 155 58" fill="none" xmlns="http://www.w3.org/2000/svg">
<path d="M60.4449 40.124C59.1627 38.4992 58.015 36.7483 57.1699 34.8548C56.1693 32.4203 55.6375 29.8307 55.5015 27.2138C55.7596 26.7599 57.3411 23.9973 58.4043 22.6839C59.5645 21.2504 61.128 18.5184 60.5605 15.5362C60.1716 13.4929 59.7298 12.3109 59.4898 11.7688C59.7878 11.3781 60.1075 11.0021 60.4519 10.6443C61.1057 10.0109 61.8107 9.35653 62.705 9.09757C63.4981 8.85115 64.4244 9.00708 65.043 9.57697C65.9846 10.5195 65.6676 12.0046 65.2393 13.1211C64.5729 14.7519 63.5654 16.2124 62.7625 17.7758C60.8793 21.3502 59.3334 25.221 59.158 29.3007C59.1162 31.5826 59.229 33.9977 60.204 36.0967C60.2388 36.1501 60.2774 36.1951 60.3177 36.2336C60.3228 37.617 60.9373 38.9601 61.6501 40.1263C62.6827 41.7626 63.9886 43.2184 64.8936 44.9374C64.9284 45.0038 64.9618 45.0706 64.9956 45.1374C63.5431 43.4083 61.858 41.8875 60.4449 40.124Z" fill="white"/>
<path d="M100.309 38.5343C98.8719 42.556 96.3914 46.154 93.3192 49.1115C90.9283 48.757 83.7165 47.8641 79.388 49.2378C75.0517 50.6133 70.6467 55.5047 69.2493 57.1596C68.2107 56.6356 67.2074 56.0244 66.3502 55.2337C65.4778 54.4433 64.7385 53.524 64.0247 52.5917C63.0715 51.3145 62.1378 49.9214 61.7823 48.3481C61.5234 46.8278 62.9221 46.7401 63.7932 47.6172C64.6559 48.4052 65.2513 49.5278 66.3377 50.0453C68.0812 50.8551 69.5552 49.1454 70.8611 48.2289C72.4802 47.0153 74.2456 45.941 76.1729 45.2982C78.31 44.6777 80.6777 44.932 82.6417 45.9748C83.4241 46.4064 84.2117 46.8789 84.8127 47.5508C85.0243 47.807 85.0563 48.1537 85.4716 48.1653C85.7854 48.1825 86.0578 47.8966 86.0262 47.5852C85.9988 47.2311 85.6675 46.8594 85.4127 46.6027C83.3462 44.6675 80.4457 43.6433 77.6208 43.9213C74.6596 44.2257 72.064 45.9646 69.7459 47.7202C69.0243 48.24 68.3416 48.9157 67.4719 49.1658C67.4241 49.17 67.3782 49.1705 67.3327 49.17C67.2376 48.1801 67.0013 47.2056 66.6704 46.2691C65.9205 44.106 64.5097 42.285 63.1759 40.4569C62.4859 39.4791 61.7911 38.3486 61.5183 37.149C61.3099 36.3011 61.2946 34.5994 62.38 34.3859C63.5013 34.7242 63.8753 36.3601 64.2415 37.3439C64.4596 37.931 64.6174 38.6276 65.177 38.9877C65.6147 39.2652 66.2059 39.1028 66.527 38.7222C67.2482 37.7639 67.9675 36.7726 68.9644 36.0774C70.7339 34.8152 73.0037 34.3112 75.1403 34.714C75.8972 34.837 76.598 35.1386 77.2217 35.5697C77.2022 35.547 77.1837 35.5233 77.1674 35.4997C77.16 35.4857 77.1526 35.4718 77.1456 35.4579C77.1688 35.5006 77.1971 35.5386 77.2282 35.5744C77.2969 35.6222 77.3651 35.6709 77.432 35.7215C77.6422 35.806 77.8431 35.7484 77.9823 35.6226C78.4047 35.4723 78.8692 34.8569 79.1885 34.5864C80.7909 33.0331 81.8518 30.9865 82.4454 28.8499C83.9082 23.3659 80.7585 17.6498 77.2403 13.6151C77.0082 13.3483 76.7618 13.0954 76.5145 12.8429C76.3697 12.6963 76.2151 12.5589 76.0768 12.4067C75.9863 12.3069 75.655 11.995 75.8253 11.8674C76.2114 11.5774 76.8551 11.75 77.2742 11.8563C78.0622 12.0558 78.8186 12.3733 79.5653 12.6898C79.8688 12.8188 80.1714 12.9501 80.4754 13.0773C80.6902 13.1668 80.9116 13.2727 81.1381 13.3293C82.1052 13.6783 82.903 12.7789 83.6079 12.2503C84.5198 11.5003 85.4252 10.7416 86.3455 10.0014C86.8054 9.63474 87.2792 9.26952 87.7721 8.90197C87.8296 8.85602 87.8899 8.81101 87.9521 8.76599C87.9535 8.76692 92.6338 11.3184 96.2225 9.05418C97.5497 10.9383 98.6259 13.0077 99.4817 15.1434C100.456 17.7157 101.295 20.3536 101.778 23.0661C101.87 23.6267 101.952 24.1896 102.015 24.7544C102.073 25.0148 102.024 25.3326 102.094 25.5967C102.094 25.6264 102.095 25.6556 102.093 25.684C102.121 26.4692 102.131 27.2549 102.138 28.0405C102.173 31.6042 101.465 35.1651 100.309 38.5343Z" fill="white"/>
<path fill-rule="evenodd" clip-rule="evenodd" d="M103.234 26.2216C103.304 28.8936 103.002 31.5476 102.375 34.1386C101.086 40.1696 97.73 45.4956 93.158 49.5696C87.808 54.4726 80.746 58.2456 73.325 57.7966C72.186 57.7236 70.754 57.6946 68.427 56.7566C66.558 55.7766 64.945 54.3726 63.673 52.6816C62.649 51.4416 61.763 50.0896 61.121 48.6116C60.789 47.8456 60.551 46.9656 60.775 46.1376C61.161 44.7096 62.771 44.4386 63.925 45.1396C64.341 45.4016 64.694 45.7426 65.026 46.1026C65.258 46.3276 65.481 46.6156 65.714 46.8966C65.473 46.3016 65.052 45.7216 64.698 45.2636C63.672 43.9796 62.53 42.7926 61.387 41.6136C59.61 39.7696 58.077 37.6886 56.851 35.4406C54.061 30.0516 53.844 23.5986 55.224 17.7696C55.971 14.4796 57.271 11.2136 59.635 8.74564C60.759 7.56564 62.29 6.45363 64.005 6.73563C65.217 6.89063 66.308 7.76063 66.621 8.95863C67.147 11.0056 66.03 12.9976 65.054 14.7256C64.281 16.0636 63.53 17.4166 62.871 18.8156C61.327 22.0446 60.178 25.5566 60.245 29.1696C60.292 30.5186 60.387 31.8946 60.748 33.1996C61.424 31.9916 62.852 31.5886 63.968 32.9996C64.926 34.0716 65.057 35.5846 65.714 36.8136C67.616 33.9816 70.395 32.2186 73.877 32.2916C75.172 32.3536 76.598 32.5746 77.666 33.3506C78.456 32.6456 79.118 31.9456 79.725 31.1036C80.977 29.1506 81.819 26.8626 81.762 24.5216C81.621 21.6406 80.453 18.8956 78.958 16.4636C78.012 14.9776 76.918 13.5826 75.684 12.3246C75.417 11.9756 74.805 11.6116 74.756 11.1526C74.62 10.7636 74.694 10.2786 74.97 9.98263C76.24 8.64263 78.895 10.0986 80.322 10.6206C80.66 10.7616 80.998 10.9026 81.339 11.0366C81.461 11.0776 81.588 11.1666 81.714 11.0946C82.596 10.5936 83.322 9.85863 84.116 9.23463C85.381 8.17263 86.575 7.24263 87.878 6.27663C87.951 5.70763 87.859 5.13064 87.852 4.55964C87.823 3.70564 87.546 0.824636 87.891 0.328636C89.327 -1.44236 94.945 4.47264 95.963 5.68364C98.518 8.74464 100.227 12.4346 101.455 16.2046C102.19 18.4736 102.802 20.7936 103.08 23.1676C103.083 23.3286 103.118 23.5256 103.146 23.7286C103.164 23.7836 103.174 23.8436 103.172 23.9076C103.173 23.9396 103.174 23.9706 103.176 24.0026C103.179 24.0496 103.181 24.0956 103.182 24.1406C103.213 24.8336 103.225 25.5276 103.234 26.2216ZM60.462 38.9216C61.875 40.6846 63.56 42.2056 65.013 43.9346C64.979 43.8676 64.946 43.8006 64.911 43.7346C64.006 42.0166 62.7 40.5596 61.667 38.9236C60.954 37.7576 60.34 36.4146 60.335 35.0306C60.295 34.9926 60.256 34.9476 60.221 34.8936C59.246 32.7946 59.133 30.3796 59.176 28.0976C59.351 24.0186 60.896 20.1476 62.78 16.5726C63.582 15.0096 64.59 13.5496 65.256 11.9186C65.685 10.8016 66.002 9.31663 65.06 8.37463C64.442 7.80463 63.515 7.64864 62.722 7.89464C61.828 8.15364 61.123 8.80863 60.469 9.44163C60.125 9.79963 59.805 10.1756 59.507 10.5666C59.747 11.1076 60.189 12.2896 60.578 14.3336C61.145 17.3156 59.582 20.0476 58.421 21.4816C57.358 22.7946 55.777 25.5576 55.519 26.0106C55.655 28.6286 56.187 31.2176 57.187 33.6516C58.032 35.5456 59.18 37.2966 60.462 38.9216ZM100.326 37.3316C101.482 33.9626 102.19 30.4016 102.155 26.8376C102.148 26.0526 102.138 25.2676 102.11 24.4816C102.112 24.4536 102.112 24.4236 102.111 24.3946C102.042 24.1306 102.09 23.8126 102.032 23.5516C101.969 22.9866 101.887 22.4246 101.795 21.8636C101.312 19.1506 100.473 16.5136 99.499 13.9406C98.643 11.8056 97.567 9.73564 96.24 7.85164C92.651 10.1156 87.971 7.56464 87.969 7.56364C87.907 7.60864 87.847 7.65364 87.789 7.69964C87.297 8.06664 86.823 8.43264 86.362 8.79864C85.442 9.53864 84.537 10.2976 83.625 11.0476C82.92 11.5766 82.122 12.4756 81.155 12.1266C80.929 12.0706 80.707 11.9646 80.493 11.8746C80.188 11.7476 79.886 11.6166 79.582 11.4876C78.836 11.1706 78.079 10.8536 77.291 10.6536C76.872 10.5476 76.229 10.3746 75.842 10.6646C75.672 10.7926 76.003 11.1046 76.094 11.2046C76.232 11.3566 76.387 11.4936 76.532 11.6406C76.779 11.8926 77.025 12.1456 77.257 12.4126C80.776 16.4476 83.925 22.1636 82.463 27.6476C81.869 29.7836 80.808 31.8306 79.206 33.3836C78.886 33.6546 78.422 34.2696 78 34.4206C77.86 34.5456 77.659 34.6036 77.449 34.5186C77.382 34.4686 77.314 34.4196 77.245 34.3716C77.214 34.3366 77.186 34.2976 77.163 34.2556C77.17 34.2696 77.177 34.2836 77.185 34.2976C77.201 34.3206 77.219 34.3446 77.239 34.3676C76.615 33.9356 75.914 33.6346 75.157 33.5116C73.021 33.1086 70.751 33.6126 68.982 34.8746C67.985 35.5696 67.265 36.5616 66.544 37.5196C66.223 37.9006 65.632 38.0626 65.194 37.7856C64.635 37.4246 64.477 36.7286 64.259 36.1416C63.892 35.1576 63.518 33.5226 62.397 33.1836C61.312 33.3966 61.327 35.0986 61.535 35.9466C61.808 37.1466 62.503 38.2766 63.193 39.2546C64.527 41.0826 65.938 42.9036 66.688 45.0666C67.018 46.0026 67.255 46.9776 67.35 47.9676C67.395 47.9676 67.441 47.9676 67.489 47.9636C68.359 47.7136 69.041 47.0376 69.763 46.5176C72.081 44.7616 74.677 43.0236 77.638 42.7186C80.463 42.4406 83.363 43.4646 85.43 45.4006C85.685 45.6566 86.016 46.0286 86.043 46.3826C86.075 46.6936 85.802 46.9796 85.489 46.9626C85.073 46.9516 85.041 46.6046 84.83 46.3486C84.229 45.6766 83.441 45.2036 82.659 44.7726C80.695 43.7296 78.327 43.4756 76.19 44.0956C74.263 44.7386 72.497 45.8126 70.878 47.0266C69.572 47.9426 68.098 49.6526 66.355 48.8426C65.268 48.3256 64.673 47.2026 63.81 46.4146C62.939 45.5376 61.54 45.6256 61.799 47.1456C62.155 48.7186 63.089 50.1116 64.042 51.3896C64.756 52.3216 65.495 53.2406 66.367 54.0316C67.225 54.8216 68.228 55.4326 69.266 55.9566C70.664 54.3026 75.069 49.4116 79.405 48.0356C83.734 46.6616 90.945 47.5546 93.336 47.9086C96.409 44.9516 98.889 41.3536 100.326 37.3316ZM86.013 25.0076C88.876 24.9916 90.973 27.1516 91.416 29.8926C91.544 30.6496 91.554 31.4216 91.547 32.1876C91.528 33.6286 91.4 35.0876 90.899 36.4496C90.288 38.3506 88.721 40.2036 86.533 39.8266C85.766 39.7026 85.082 39.2626 84.573 38.6866C83.609 37.6076 83.463 36.0916 83.525 34.7056C83.568 33.4256 83.71 32.1386 83.548 30.8616C83.466 30.1536 84.504 30.0006 84.622 30.7036C84.792 32.0396 84.66 33.3826 84.61 34.7206C84.589 35.6466 84.59 36.6216 85.036 37.4596C85.179 37.7276 85.352 37.9536 85.545 38.1406C85.563 37.7486 85.559 37.3556 85.551 36.9626C85.557 36.6096 85.491 36.2566 85.51 35.9066C85.62 35.2636 86.572 35.3286 86.588 35.9856C86.656 36.8976 86.663 37.8136 86.599 38.7256C86.886 38.7916 87.183 38.7966 87.476 38.7426C87.472 38.7126 87.47 38.6836 87.471 38.6526C87.509 37.8196 87.423 36.9876 87.31 36.1626C87.216 35.4936 88.166 35.2796 88.369 35.9246C88.415 36.3136 88.584 37.4186 88.576 38.2096C88.702 38.1046 88.824 37.9836 88.938 37.8476C89.993 36.4816 90.355 34.7096 90.436 33.0176C90.48 31.7106 90.537 30.3536 90.092 29.1016C89.531 27.4206 88.04 26.1556 86.237 26.0996C85.786 26.0376 85.13 26.3426 84.946 25.7456C84.802 25.0716 85.508 24.9846 86.013 25.0076ZM89.393 15.8506C90.008 15.5316 91.322 14.4936 91.629 15.6536C91.709 16.3406 91.911 17.7406 90.906 17.7746C90.729 17.7606 90.573 17.6646 90.412 17.5976C90.129 17.4796 89.839 17.3836 89.571 17.2326C88.948 16.9326 88.655 16.2226 89.393 15.8506ZM100.855 29.2686C101.43 29.6256 100.955 30.1676 100.76 30.6006C100.446 31.2766 100.27 32.0026 100.137 32.7326C99.804 34.6046 99.633 36.5876 98.582 38.2266C97.972 39.2376 96.849 40.1096 95.612 39.9466C93.078 39.4686 92.522 36.4576 92.55 34.2726C92.54 31.9916 92.795 29.6686 93.578 27.5166C94.32 25.4516 96.722 22.7876 99.069 22.9366C99.771 23.1596 99.476 24.0826 98.867 24.0016C97.892 24.0576 97.036 24.6646 96.339 25.3086C94.92 26.5826 94.273 28.4406 93.965 30.2756C93.622 32.4036 93.211 36.1436 94.473 37.9766C94.462 37.2156 94.456 36.4536 94.454 35.6926C94.446 35.0216 95.421 34.9306 95.534 35.5976C95.547 35.8416 95.539 36.0816 95.542 36.3256C95.552 37.0956 95.547 37.8666 95.573 38.6366C95.577 38.7006 95.568 38.7606 95.549 38.8156C95.866 38.9016 96.188 38.8726 96.497 38.7436C96.492 38.7136 96.488 38.6836 96.486 38.6516C96.453 37.6076 96.438 36.5636 96.375 35.5226C96.339 35.0006 97.011 34.7126 97.344 35.1296C97.437 35.2446 97.477 35.3996 97.46 35.5426C97.467 35.8016 97.496 36.0596 97.504 36.3186C97.526 36.8216 97.536 37.3256 97.548 37.8286C97.569 37.7986 97.589 37.7686 97.609 37.7376C98.202 36.8226 98.506 35.7616 98.704 34.6986C98.987 33.2196 99.094 31.6776 99.712 30.2856C99.947 29.8376 100.183 28.9446 100.855 29.2686ZM90.264 20.3816C90.959 20.2936 91.635 20.0736 92.25 19.7386C92.697 19.4856 93.098 19.1486 93.426 18.7526C93.747 18.4076 93.967 17.6476 94.57 17.9516C94.823 18.0866 94.943 18.4316 94.793 18.6866C94.325 19.4866 93.659 20.1766 92.855 20.6426C92.178 21.0296 91.433 21.2876 90.665 21.4216C90.135 21.5126 89.182 21.6356 89.293 20.8156C89.432 20.3056 89.86 20.4206 90.264 20.3816ZM75.69 10.7136C75.688 10.7126 75.686 10.7116 75.686 10.7116C75.667 10.7006 75.647 10.6896 75.628 10.6796L75.623 10.6776C75.627 10.6806 75.629 10.6816 75.632 10.6846C75.661 10.6986 75.687 10.7136 75.713 10.7306C75.705 10.7256 75.697 10.7196 75.69 10.7136Z" fill="#015073"/>
<path d="M6.26271 32.9761C6.79705 32.9761 7.22819 32.7823 7.55543 32.3939C7.88341 32.0055 8.15611 31.4837 8.375 30.8277C8.59316 30.1725 8.76931 29.4141 8.90272 28.5525C9.03612 27.6902 9.16361 26.774 9.28522 25.8034C9.33386 25.3663 9.38251 24.8504 9.43115 24.2556C9.47906 23.6608 9.53437 22.8958 9.5948 21.9613C9.65524 21.0267 9.72818 19.8615 9.81293 18.4663C9.89843 17.0703 10.0016 15.3531 10.1225 13.3137C10.1468 12.9739 10.1837 12.7433 10.2316 12.6217C10.2802 12.5008 10.4379 12.4396 10.7055 12.4396H12.708C13.5335 12.4396 14.1828 12.5126 14.656 12.6585C15.1291 12.8037 15.4873 12.9857 15.7298 13.2046C15.973 13.4228 16.1182 13.6594 16.1669 13.9144C16.2155 14.1694 16.2398 14.4185 16.2398 14.661C16.2398 14.9035 16.228 15.4622 16.2037 16.3363C16.1794 17.2096 16.1425 18.2231 16.0939 19.3765C16.046 20.5292 15.9789 21.7372 15.8942 22.999C15.8087 24.2615 15.718 25.4024 15.6207 26.4217C15.4755 27.8059 15.2507 29.2195 14.9471 30.6641C14.6441 32.1086 14.1526 33.425 13.4723 34.6145C12.7928 35.8041 11.8884 36.7755 10.76 37.528C9.63091 38.2805 8.16865 38.6564 6.37252 38.6564C5.37679 38.6564 4.48498 38.5348 3.69562 38.2923C2.907 38.0498 2.23927 37.7159 1.69313 37.2907C1.14699 36.8662 0.728334 36.3687 0.437208 35.7982C0.146082 35.2277 0.000183105 34.6271 0.000183105 33.9954C0.000183105 33.4132 0.115155 32.8855 0.345844 32.4116C0.576534 31.9384 0.886092 31.5441 1.27451 31.2286C1.66292 30.9132 2.10586 30.67 2.60335 30.5005C3.10158 30.3302 3.61674 30.2454 4.15109 30.2454C4.29702 30.2454 4.40024 30.3847 4.46067 30.6641C4.52111 30.9434 4.60661 31.2589 4.71569 31.6104C4.82477 31.9627 4.98838 32.2782 5.20728 32.5575C5.42544 32.8368 5.77774 32.9761 6.26271 32.9761Z" fill="#015073"/>
<path d="M24.9787 38.6564C23.3035 38.6564 21.9142 38.4198 20.8094 37.9466C19.7053 37.4727 18.8253 36.8234 18.1693 35.9987C17.5141 35.1732 17.0527 34.2084 16.7859 33.1036C16.5191 31.9988 16.3857 30.8159 16.3857 29.5534C16.3857 28.097 16.5612 26.6709 16.9135 25.2749C17.2658 23.879 17.8664 22.6349 18.7162 21.5426C19.5653 20.4503 20.6885 19.5703 22.0837 18.9033C23.4796 18.2356 25.2212 17.9017 27.3092 17.9017C30.3679 17.9017 32.5583 18.6483 33.8813 20.1408C35.2042 21.634 35.8661 23.7279 35.8661 26.4217C35.8661 27.1742 35.8116 28.0056 35.7018 28.9166C35.5927 29.8268 35.3863 30.7304 35.0826 31.6288C34.7797 32.5273 34.367 33.4006 33.8451 34.2504C33.3233 35.1002 32.6615 35.8527 31.8603 36.508C31.0592 37.1632 30.0944 37.6857 28.966 38.0741C27.8369 38.4626 26.5081 38.6564 24.9787 38.6564ZM26.6901 22.7447C25.7674 22.7447 25.0333 22.9813 24.4871 23.4545C23.941 23.9276 23.5283 24.4981 23.2489 25.1658C22.9703 25.8336 22.7883 26.5374 22.7028 27.2774C22.618 28.0181 22.5753 28.6431 22.5753 29.1532C22.5753 30.7547 22.8303 31.9325 23.3403 32.685C23.8496 33.4375 24.5785 33.8134 25.5248 33.8134C26.3746 33.8134 27.0726 33.5466 27.6187 33.0122C28.1649 32.4786 28.5894 31.8352 28.8931 31.0827C29.1967 30.3302 29.4031 29.5416 29.5122 28.7161C29.6213 27.8906 29.6758 27.1986 29.6758 26.6406C29.6758 25.4268 29.451 24.4738 29.0022 23.7824C28.5533 23.0904 27.7824 22.7447 26.6901 22.7447Z" fill="#015073"/>
<path d="M43.3668 21.6156C43.3668 22.1743 43.33 22.8354 43.2578 23.6004C43.1848 24.3647 43.106 25.1297 43.0205 25.894C42.9357 26.6591 42.8569 27.3747 42.7839 28.0425C42.7117 28.7102 42.6748 29.2254 42.6748 29.5902C42.6748 30.5122 42.8996 31.1984 43.3484 31.6473C43.7973 32.0961 44.3501 32.3209 45.0053 32.3209C46.1462 32.3209 47.0564 31.7261 47.736 30.5366C48.4155 29.347 48.8408 27.769 49.0103 25.8034L49.5932 18.994C49.6176 18.7272 49.7082 18.5385 49.8659 18.4294C50.0237 18.3203 50.1998 18.2658 50.3944 18.2658H51.7049C52.2149 18.2658 52.6939 18.3086 53.1435 18.3933C53.5924 18.4781 53.9867 18.6358 54.3264 18.8665C54.6662 19.0972 54.9338 19.4067 55.1276 19.7951C55.3222 20.1836 55.4187 20.681 55.4187 21.2876C55.4187 21.5308 55.401 21.9856 55.3642 22.6533C55.3281 23.3211 55.2676 24.28 55.1821 25.5299C55.0974 26.7799 54.9824 28.3579 54.8365 30.2631C54.6905 32.1691 54.521 34.4937 54.3264 37.2361C54.2056 38.8384 53.8474 40.1673 53.2526 41.2235C52.6578 42.2796 51.9112 43.1169 51.0135 43.736C50.1151 44.3551 49.1076 44.7855 47.991 45.0287C46.8744 45.2712 45.7334 45.3928 44.5682 45.3928C43.33 45.3928 42.1957 45.2837 41.1639 45.0649C40.1321 44.8467 39.2402 44.543 38.4877 44.1546C37.7352 43.7662 37.1463 43.3174 36.7218 42.8073C36.2965 42.2973 36.0843 41.7512 36.0843 41.1689C36.0843 40.7075 36.1875 40.3073 36.3938 39.9676C36.6002 39.6271 36.8736 39.3485 37.2134 39.1296C37.5532 38.9114 37.9475 38.7478 38.3964 38.638C38.8459 38.5289 39.3132 38.4744 39.7982 38.4744C40.0414 38.4744 40.2168 38.596 40.3266 38.8384C40.4357 39.0809 40.6052 39.3544 40.8359 39.658C41.0666 39.9609 41.4366 40.2344 41.9466 40.4769C42.4566 40.7201 43.2209 40.8409 44.241 40.8409C45.1387 40.8409 45.8669 40.6228 46.4255 40.1857C46.9834 39.7487 47.4146 39.1907 47.7182 38.5105C48.0212 37.8309 48.2216 37.091 48.3189 36.2898C48.4155 35.4887 48.4641 34.7236 48.4641 33.9954C48.0757 34.6757 47.6453 35.2277 47.1721 35.6523C46.6982 36.0775 46.2066 36.4048 45.6974 36.6355C45.1873 36.8662 44.6773 37.018 44.168 37.091C43.658 37.1632 43.1723 37.2 42.7116 37.2C41.8132 37.2 40.9936 37.0784 40.2536 36.8359C39.5129 36.5927 38.8761 36.1984 38.3418 35.6523C37.8082 35.1061 37.3955 34.3964 37.1036 33.5223C36.8125 32.6482 36.6673 31.5927 36.6673 30.3545C36.6673 29.8931 36.6908 29.2807 36.7395 28.5156C36.7881 27.7513 36.8493 26.889 36.9215 25.9302C36.9945 24.9713 37.0734 23.9335 37.1589 22.817C37.2436 21.7004 37.3343 20.5594 37.4316 19.3942C37.4802 18.6417 37.82 18.2658 38.4509 18.2658H39.6161C40.3929 18.2658 41.0246 18.3388 41.5096 18.484C41.9953 18.6299 42.3778 18.8422 42.6564 19.1215C42.9357 19.4008 43.1236 19.7524 43.2209 20.1777C43.3182 20.6022 43.3668 21.082 43.3668 21.6156Z" fill="#015073"/>
<path d="M113.5 36.5262C114.495 36.5262 115.338 36.3803 116.03 36.0892C116.722 35.798 117.31 35.4701 117.796 35.106C118.282 34.7419 118.713 34.4146 119.089 34.1228C119.466 33.8317 119.847 33.6865 120.236 33.6865C120.721 33.6865 120.964 34.0505 120.964 34.7787C120.964 35.1671 120.915 35.6344 120.819 36.1806C120.721 36.7267 120.588 37.3392 120.418 38.0194C120.321 38.4322 120.084 38.881 119.708 39.3667C119.331 39.8517 118.815 40.3072 118.16 40.7317C117.505 41.157 116.698 41.5085 115.739 41.7879C114.78 42.0672 113.682 42.2065 112.444 42.2065C111.206 42.2065 109.967 42.0244 108.73 41.6604C107.492 41.2963 106.387 40.6772 105.416 39.803C104.445 38.9297 103.656 37.7519 103.05 36.2712C102.442 34.7905 102.14 32.934 102.14 30.7C102.14 29.8996 102.194 28.971 102.303 27.9148C102.412 26.8586 102.624 25.773 102.94 24.6557C103.256 23.5391 103.699 22.4409 104.27 21.3604C104.84 20.2807 105.574 19.3159 106.472 18.4661C107.37 17.6163 108.469 16.9309 109.768 16.4091C111.066 15.8865 112.613 15.6256 114.41 15.6256C115.842 15.6256 117.086 15.7959 118.143 16.1356C119.198 16.4754 120.072 16.9427 120.764 17.5375C121.455 18.1322 121.966 18.8302 122.294 19.6314C122.621 20.4325 122.784 21.2816 122.784 22.18C122.784 23.7336 122.33 24.8687 121.419 25.5843C120.509 26.3007 119.216 26.6589 117.541 26.6589C117.008 26.6589 116.674 26.6162 116.54 26.5314C116.407 26.4459 116.34 26.2705 116.34 26.003C116.315 25.1782 116.291 24.4618 116.267 23.8553C116.243 23.2479 116.158 22.7446 116.012 22.3436C115.867 21.9434 115.642 21.6523 115.338 21.4702C115.035 21.2882 114.617 21.1968 114.082 21.1968C113.305 21.1968 112.644 21.3604 112.098 21.6884C111.551 22.0164 111.091 22.4409 110.714 22.9627C110.338 23.4845 110.035 24.0734 109.804 24.7286C109.573 25.3846 109.391 26.0516 109.258 26.7311C109.124 27.4114 109.04 28.0666 109.003 28.6975C108.967 29.3292 108.948 29.8753 108.948 30.3359C108.948 32.5699 109.318 34.1596 110.059 35.106C110.799 36.0531 111.946 36.5262 113.5 36.5262Z" fill="#015073"/>
<path d="M122.129 37.3635C122.129 35.1789 123.112 33.4676 125.079 32.2294C127.045 30.9919 129.946 30.3241 133.781 30.2269C133.805 29.9601 133.824 29.7353 133.836 29.5532C133.848 29.3712 133.854 29.1471 133.854 28.8796C133.854 28.1027 133.709 27.4836 133.417 27.023C133.126 26.5616 132.519 26.3309 131.596 26.3309C131.087 26.3309 130.674 26.4039 130.358 26.5491C130.043 26.695 129.788 26.8955 129.594 27.1505C129.399 27.4048 129.241 27.7143 129.121 28.0784C128.999 28.4425 128.89 28.8435 128.793 29.2805C128.744 29.4987 128.635 29.6387 128.465 29.6991C128.295 29.7596 128.028 29.7898 127.664 29.7898C125.188 29.7898 123.95 28.8553 123.95 26.9862C123.95 26.2336 124.126 25.518 124.478 24.8377C124.83 24.1582 125.351 23.57 126.043 23.0718C126.736 22.5743 127.603 22.18 128.647 21.8889C129.691 21.5977 130.905 21.4518 132.288 21.4518C134.983 21.4518 136.937 22.0097 138.151 23.1263C139.364 24.2437 139.971 25.8209 139.971 27.8603C139.971 28.1271 139.941 28.6069 139.88 29.2982C139.819 29.9903 139.746 30.7185 139.662 31.4835C139.577 32.2478 139.504 32.9701 139.443 33.6496C139.382 34.3292 139.352 34.8031 139.352 35.0699C139.352 35.6764 139.461 36.1076 139.68 36.3626C139.898 36.6176 140.147 36.793 140.427 36.8903C140.705 36.9876 140.954 37.0606 141.172 37.1092C141.391 37.1571 141.5 37.2787 141.5 37.4733C141.5 38.0069 141.427 38.553 141.282 39.1117C141.136 39.6696 140.9 40.1797 140.572 40.6411C140.244 41.1017 139.795 41.4783 139.224 41.7694C138.654 42.0606 137.956 42.2065 137.131 42.2065C135.966 42.2065 135.092 41.9272 134.509 41.3692C133.927 40.8106 133.538 40.0337 133.344 39.0387C132.761 39.8885 132.003 40.6285 131.069 41.2602C130.134 41.8911 128.914 42.2065 127.409 42.2065C126.681 42.2065 125.995 42.1217 125.351 41.9515C124.709 41.782 124.15 41.5026 123.677 41.1142C123.204 40.7258 122.827 40.2224 122.548 39.6033C122.269 38.9842 122.129 38.2376 122.129 37.3635ZM133.454 33.2126C132.822 33.2126 132.204 33.2612 131.596 33.3585C130.99 33.4558 130.449 33.6076 129.976 33.8132C129.502 34.0196 129.121 34.293 128.829 34.6328C128.538 34.9726 128.392 35.3853 128.392 35.871C128.392 36.4289 128.568 36.8174 128.92 37.0363C129.272 37.2544 129.654 37.3635 130.067 37.3635C130.455 37.3635 130.844 37.2787 131.232 37.1092C131.621 36.939 131.966 36.6781 132.27 36.3258C132.574 35.9742 132.834 35.543 133.053 35.0338C133.271 34.5237 133.405 33.9164 133.454 33.2126Z" fill="#015073"/>
<path d="M150.093 26.7311C150.02 27.6539 149.942 28.5641 149.857 29.4626C149.772 30.3603 149.693 31.21 149.62 32.0112C149.547 32.8123 149.493 33.528 149.457 34.1596C149.42 34.7905 149.402 35.2762 149.402 35.616C149.402 36.2469 149.474 36.6655 149.62 36.8719C149.766 37.0782 150.009 37.1814 150.348 37.1814C150.615 37.1814 150.846 37.1328 151.04 37.0362C151.234 36.939 151.416 36.8299 151.587 36.7083C151.756 36.5867 151.908 36.4776 152.041 36.3803C152.175 36.2837 152.327 36.2351 152.497 36.2351C152.666 36.2351 152.825 36.3324 152.97 36.5262C153.116 36.7208 153.189 37.1696 153.189 37.8735C153.189 39.2083 152.825 40.2644 152.096 41.0413C151.368 41.8181 150.118 42.2065 148.346 42.2065C146.598 42.2065 145.306 41.7997 144.468 40.9867C143.63 40.1738 143.212 38.9297 143.212 37.2544C143.212 36.8903 143.23 36.4591 143.266 35.9617C143.302 35.4642 143.358 34.8148 143.43 34.0137C143.503 33.2125 143.594 32.2294 143.703 31.0649C143.812 29.8996 143.928 28.455 144.049 26.7311H142.12C141.925 26.7311 141.81 26.6891 141.774 26.6044C141.737 26.5189 141.719 26.3914 141.719 26.2218L141.828 24.3645C141.853 24.0491 141.895 23.7395 141.956 23.4359C142.016 23.133 142.138 22.8595 142.32 22.617C142.502 22.3738 142.763 22.18 143.103 22.0341C143.442 21.8889 143.891 21.8159 144.45 21.8159C144.62 21.3788 144.814 20.857 145.032 20.2505C145.251 19.6431 145.469 19.055 145.687 18.4845C145.906 17.9141 146.119 17.4343 146.325 17.0459C146.531 16.6574 146.719 16.4636 146.89 16.4636H147.945C148.965 16.4636 149.669 16.7791 150.057 17.41C150.446 18.0408 150.64 18.7934 150.64 19.6675C150.64 20.1532 150.603 20.8688 150.53 21.8159H154.354C154.742 21.8159 154.936 21.9862 154.936 22.3259L154.79 24.2916C154.742 25.0198 154.542 25.6086 154.19 26.0575C153.838 26.5071 153.116 26.7311 152.024 26.7311H150.093Z" fill="#015073"/>
</svg>
