<?xml version="1.0" encoding="UTF-8" standalone="no"?>
<!DOCTYPE svg PUBLIC "-//W3C//DTD SVG 1.1//EN" "http://www.w3.org/Graphics/SVG/1.1/DTD/svg11.dtd">
<svg width="100%" height="100%" viewBox="0 0 155 58" version="1.1" xmlns="http://www.w3.org/2000/svg" xmlns:xlink="http://www.w3.org/1999/xlink" xml:space="preserve" xmlns:serif="http://www.serif.com/" style="fill-rule:evenodd;clip-rule:evenodd;stroke-linejoin:round;stroke-miterlimit:2;">
    <g transform="matrix(1,0,0,1,-851.422,-249.268)">
        <g transform="matrix(1,0,0,1,154.666,154.666)">
            <g>
                <path d="M799.99,120.823C800.06,123.495 799.758,126.149 799.131,128.74C797.842,134.771 794.486,140.097 789.914,144.171C784.564,149.074 777.502,152.847 770.081,152.398C768.942,152.325 767.51,152.296 765.183,151.358C763.314,150.378 761.701,148.974 760.429,147.283C759.405,146.043 758.519,144.691 757.877,143.213C757.545,142.447 757.307,141.567 757.531,140.739C757.917,139.311 759.527,139.04 760.681,139.741C761.097,140.003 761.45,140.344 761.782,140.704C762.014,140.929 762.237,141.217 762.47,141.498C762.229,140.903 761.808,140.323 761.454,139.865C760.428,138.581 759.286,137.394 758.143,136.215C756.366,134.371 754.833,132.29 753.607,130.042C750.817,124.653 750.6,118.2 751.98,112.371C752.727,109.081 754.027,105.815 756.391,103.347C757.515,102.167 759.046,101.055 760.761,101.337C761.973,101.492 763.064,102.362 763.377,103.56C763.903,105.607 762.786,107.599 761.81,109.327C761.037,110.665 760.286,112.018 759.627,113.417C758.083,116.646 756.934,120.158 757.001,123.771C757.048,125.12 757.143,126.496 757.504,127.801C758.18,126.593 759.608,126.19 760.724,127.601C761.682,128.673 761.813,130.186 762.47,131.415C764.372,128.583 767.151,126.82 770.633,126.893C771.928,126.955 773.354,127.176 774.422,127.952C775.212,127.247 775.874,126.547 776.481,125.705C777.733,123.752 778.575,121.464 778.518,119.123C778.377,116.242 777.209,113.497 775.714,111.065C774.768,109.579 773.674,108.184 772.44,106.926C772.173,106.577 771.561,106.213 771.512,105.754C771.376,105.365 771.45,104.88 771.726,104.584C772.996,103.244 775.651,104.7 777.078,105.222C777.416,105.363 777.754,105.504 778.095,105.638C778.217,105.679 778.344,105.768 778.47,105.696C779.352,105.195 780.078,104.46 780.872,103.836C782.137,102.774 783.331,101.844 784.634,100.878C784.707,100.309 784.615,99.732 784.608,99.161C784.579,98.307 784.302,95.426 784.647,94.93C786.083,93.159 791.701,99.074 792.719,100.285C795.274,103.346 796.983,107.036 798.211,110.806C798.946,113.075 799.558,115.395 799.836,117.769C799.839,117.93 799.874,118.127 799.902,118.33C799.92,118.385 799.93,118.445 799.928,118.509C799.929,118.541 799.93,118.572 799.932,118.604C799.935,118.651 799.937,118.697 799.938,118.742C799.969,119.435 799.981,120.129 799.99,120.823ZM757.218,133.523C758.631,135.286 760.316,136.807 761.769,138.536C761.735,138.469 761.702,138.402 761.667,138.336C760.762,136.618 759.456,135.161 758.423,133.525C757.71,132.359 757.096,131.016 757.091,129.632C757.051,129.594 757.012,129.549 756.977,129.495C756.002,127.396 755.889,124.981 755.932,122.699C756.107,118.62 757.652,114.749 759.536,111.174C760.338,109.611 761.346,108.151 762.012,106.52C762.441,105.403 762.758,103.918 761.816,102.976C761.198,102.406 760.271,102.25 759.478,102.496C758.584,102.755 757.879,103.41 757.225,104.043C756.881,104.401 756.561,104.777 756.263,105.168C756.503,105.709 756.945,106.891 757.334,108.935C757.901,111.917 756.338,114.649 755.177,116.083C754.114,117.396 752.533,120.159 752.275,120.612C752.411,123.23 752.943,125.819 753.943,128.253C754.788,130.147 755.936,131.898 757.218,133.523ZM797.082,131.933C798.238,128.564 798.946,125.003 798.911,121.439C798.904,120.654 798.894,119.869 798.866,119.083C798.868,119.055 798.868,119.025 798.867,118.996C798.798,118.732 798.846,118.414 798.788,118.153C798.725,117.588 798.643,117.026 798.551,116.465C798.068,113.752 797.229,111.115 796.255,108.542C795.399,106.407 794.323,104.337 792.996,102.453C789.407,104.717 784.727,102.166 784.725,102.165C784.663,102.21 784.603,102.255 784.545,102.301C784.053,102.668 783.579,103.034 783.118,103.4C782.198,104.14 781.293,104.899 780.381,105.649C779.676,106.178 778.878,107.077 777.911,106.728C777.685,106.672 777.463,106.566 777.249,106.476C776.944,106.349 776.642,106.218 776.338,106.089C775.592,105.772 774.835,105.455 774.047,105.255C773.628,105.149 772.985,104.976 772.598,105.266C772.428,105.394 772.759,105.706 772.85,105.806C772.988,105.958 773.143,106.095 773.288,106.242C773.535,106.494 773.781,106.747 774.013,107.014C777.532,111.049 780.681,116.765 779.219,122.249C778.625,124.385 777.564,126.432 775.962,127.985C775.642,128.256 775.178,128.871 774.756,129.022C774.616,129.147 774.415,129.205 774.205,129.12C774.138,129.07 774.07,129.021 774.001,128.973C773.97,128.938 773.942,128.899 773.919,128.857C773.926,128.871 773.933,128.885 773.941,128.899C773.957,128.922 773.975,128.946 773.995,128.969C773.371,128.537 772.67,128.236 771.913,128.113C769.777,127.71 767.507,128.214 765.738,129.476C764.741,130.171 764.021,131.163 763.3,132.121C762.979,132.502 762.388,132.664 761.95,132.387C761.391,132.026 761.233,131.33 761.015,130.743C760.648,129.759 760.274,128.124 759.153,127.785C758.068,127.998 758.083,129.7 758.291,130.548C758.564,131.748 759.259,132.878 759.949,133.856C761.283,135.684 762.694,137.505 763.444,139.668C763.774,140.604 764.011,141.579 764.106,142.569C764.151,142.569 764.197,142.569 764.245,142.565C765.115,142.315 765.797,141.639 766.519,141.119C768.837,139.363 771.433,137.625 774.394,137.32C777.219,137.042 780.119,138.066 782.186,140.002C782.441,140.258 782.772,140.63 782.799,140.984C782.831,141.295 782.558,141.581 782.245,141.564C781.829,141.553 781.797,141.206 781.586,140.95C780.985,140.278 780.197,139.805 779.415,139.374C777.451,138.331 775.083,138.077 772.946,138.697C771.019,139.34 769.253,140.414 767.634,141.628C766.328,142.544 764.854,144.254 763.111,143.444C762.024,142.927 761.429,141.804 760.566,141.016C759.695,140.139 758.296,140.227 758.555,141.747C758.911,143.32 759.845,144.713 760.798,145.991C761.512,146.923 762.251,147.842 763.123,148.633C763.981,149.423 764.984,150.034 766.022,150.558C767.42,148.904 771.825,144.013 776.161,142.637C780.49,141.263 787.701,142.156 790.092,142.51C793.165,139.553 795.645,135.955 797.082,131.933ZM782.769,119.609C785.632,119.593 787.729,121.753 788.172,124.494C788.3,125.251 788.31,126.023 788.303,126.789C788.284,128.23 788.156,129.689 787.655,131.051C787.044,132.952 785.477,134.805 783.289,134.428C782.522,134.304 781.838,133.864 781.329,133.288C780.365,132.209 780.219,130.693 780.281,129.307C780.324,128.027 780.466,126.74 780.304,125.463C780.222,124.755 781.26,124.602 781.378,125.305C781.548,126.641 781.416,127.984 781.366,129.322C781.345,130.248 781.346,131.223 781.792,132.061C781.935,132.329 782.108,132.555 782.301,132.742C782.319,132.35 782.315,131.957 782.307,131.564C782.313,131.211 782.247,130.858 782.266,130.508C782.376,129.865 783.328,129.93 783.344,130.587C783.412,131.499 783.419,132.415 783.355,133.327C783.642,133.393 783.939,133.398 784.232,133.344C784.228,133.314 784.226,133.285 784.227,133.254C784.265,132.421 784.179,131.589 784.066,130.764C783.972,130.095 784.922,129.881 785.125,130.526C785.171,130.915 785.34,132.02 785.332,132.811C785.458,132.706 785.58,132.585 785.694,132.449C786.749,131.083 787.111,129.311 787.192,127.619C787.236,126.312 787.293,124.955 786.848,123.703C786.287,122.022 784.796,120.757 782.993,120.701C782.542,120.639 781.886,120.944 781.702,120.347C781.558,119.673 782.264,119.586 782.769,119.609ZM786.149,110.452C786.764,110.133 788.078,109.095 788.385,110.255C788.465,110.942 788.667,112.342 787.662,112.376C787.485,112.362 787.329,112.266 787.168,112.199C786.885,112.081 786.595,111.985 786.327,111.834C785.704,111.534 785.411,110.824 786.149,110.452ZM797.611,123.87C798.186,124.227 797.711,124.769 797.516,125.202C797.202,125.878 797.026,126.604 796.893,127.334C796.56,129.206 796.389,131.189 795.338,132.828C794.728,133.839 793.605,134.711 792.368,134.548C789.834,134.07 789.278,131.059 789.306,128.874C789.296,126.593 789.551,124.27 790.334,122.118C791.076,120.053 793.478,117.389 795.825,117.538C796.527,117.761 796.232,118.684 795.623,118.603C794.648,118.659 793.792,119.266 793.095,119.91C791.676,121.184 791.029,123.042 790.721,124.877C790.378,127.005 789.967,130.745 791.229,132.578C791.218,131.817 791.212,131.055 791.21,130.294C791.202,129.623 792.177,129.532 792.29,130.199C792.303,130.443 792.295,130.683 792.298,130.927C792.308,131.697 792.303,132.468 792.329,133.238C792.333,133.302 792.324,133.362 792.305,133.417C792.622,133.503 792.944,133.474 793.253,133.345C793.248,133.315 793.244,133.285 793.242,133.253C793.209,132.209 793.194,131.165 793.131,130.124C793.095,129.602 793.767,129.314 794.1,129.731C794.193,129.846 794.233,130.001 794.216,130.144C794.223,130.403 794.252,130.661 794.26,130.92C794.282,131.423 794.292,131.927 794.304,132.43C794.325,132.4 794.345,132.37 794.365,132.339C794.958,131.424 795.262,130.363 795.46,129.3C795.743,127.821 795.85,126.279 796.468,124.887C796.703,124.439 796.939,123.546 797.611,123.87ZM787.02,114.983C787.715,114.895 788.391,114.675 789.006,114.34C789.453,114.087 789.854,113.75 790.182,113.354C790.503,113.009 790.723,112.249 791.326,112.553C791.579,112.688 791.699,113.033 791.549,113.288C791.081,114.088 790.415,114.778 789.611,115.244C788.934,115.631 788.189,115.889 787.421,116.023C786.891,116.114 785.938,116.237 786.049,115.417C786.188,114.907 786.616,115.022 787.02,114.983ZM772.446,105.315C772.444,105.314 772.443,105.314 772.442,105.313C772.423,105.302 772.403,105.291 772.384,105.281L772.379,105.279C772.383,105.282 772.385,105.283 772.388,105.286C772.417,105.3 772.443,105.315 772.469,105.332C772.461,105.327 772.453,105.321 772.446,105.315Z" style="fill:rgb(183,235,228);"/>
            </g>
            <g transform="matrix(0.737027,0,0,0.737027,184.162,30.6269)">
                <path d="M703.986,131.543C704.711,131.543 705.296,131.28 705.74,130.753C706.185,130.226 706.555,129.518 706.852,128.628C707.148,127.739 707.387,126.71 707.568,125.541C707.749,124.371 707.922,123.128 708.087,121.811C708.153,121.218 708.219,120.518 708.285,119.711C708.35,118.904 708.425,117.866 708.507,116.598C708.589,115.33 708.688,113.749 708.803,111.856C708.919,109.962 709.059,107.632 709.223,104.865C709.256,104.404 709.306,104.091 709.371,103.926C709.437,103.762 709.651,103.679 710.014,103.679L712.731,103.679C713.851,103.679 714.732,103.778 715.374,103.976C716.016,104.173 716.502,104.42 716.831,104.717C717.161,105.013 717.358,105.334 717.424,105.68C717.49,106.026 717.523,106.364 717.523,106.693C717.523,107.022 717.507,107.78 717.474,108.966C717.441,110.151 717.391,111.526 717.325,113.091C717.26,114.655 717.169,116.294 717.054,118.006C716.938,119.719 716.815,121.267 716.683,122.65C716.486,124.528 716.181,126.446 715.769,128.406C715.358,130.366 714.691,132.152 713.768,133.766C712.846,135.38 711.619,136.698 710.088,137.719C708.556,138.74 706.572,139.25 704.135,139.25C702.784,139.25 701.574,139.085 700.503,138.756C699.433,138.427 698.527,137.974 697.786,137.397C697.045,136.821 696.477,136.146 696.082,135.372C695.687,134.598 695.489,133.783 695.489,132.926C695.489,132.136 695.645,131.42 695.958,130.777C696.271,130.135 696.691,129.6 697.218,129.172C697.745,128.744 698.346,128.414 699.021,128.184C699.697,127.953 700.396,127.838 701.121,127.838C701.319,127.838 701.459,128.027 701.541,128.406C701.623,128.785 701.739,129.213 701.887,129.69C702.035,130.168 702.257,130.596 702.554,130.975C702.85,131.354 703.328,131.543 703.986,131.543Z" style="fill:rgb(183,235,228);fill-rule:nonzero;"/>
                <path d="M729.38,139.25C727.107,139.25 725.222,138.929 723.723,138.287C722.225,137.644 721.031,136.763 720.141,135.644C719.252,134.524 718.626,133.215 718.264,131.716C717.902,130.217 717.721,128.612 717.721,126.899C717.721,124.923 717.959,122.988 718.437,121.094C718.915,119.2 719.73,117.512 720.883,116.03C722.035,114.548 723.559,113.354 725.452,112.449C727.346,111.543 729.709,111.09 732.542,111.09C736.692,111.09 739.664,112.103 741.459,114.128C743.254,116.154 744.152,118.995 744.152,122.65C744.152,123.671 744.078,124.799 743.929,126.035C743.781,127.27 743.501,128.496 743.089,129.715C742.678,130.934 742.118,132.119 741.41,133.272C740.702,134.425 739.804,135.446 738.717,136.335C737.63,137.224 736.321,137.933 734.79,138.46C733.258,138.987 731.455,139.25 729.38,139.25ZM731.702,117.661C730.45,117.661 729.454,117.982 728.713,118.624C727.972,119.266 727.412,120.04 727.033,120.946C726.655,121.852 726.408,122.807 726.292,123.811C726.177,124.816 726.119,125.664 726.119,126.356C726.119,128.529 726.465,130.127 727.157,131.148C727.848,132.169 728.837,132.679 730.121,132.679C731.274,132.679 732.221,132.317 732.962,131.592C733.703,130.868 734.279,129.995 734.691,128.974C735.103,127.953 735.383,126.883 735.531,125.763C735.679,124.643 735.753,123.704 735.753,122.947C735.753,121.3 735.448,120.007 734.839,119.069C734.23,118.13 733.184,117.661 731.702,117.661Z" style="fill:rgb(183,235,228);fill-rule:nonzero;"/>
                <path d="M754.329,116.129C754.329,116.887 754.279,117.784 754.181,118.822C754.082,119.859 753.975,120.897 753.859,121.934C753.744,122.972 753.637,123.943 753.538,124.849C753.44,125.755 753.39,126.454 753.39,126.949C753.39,128.2 753.695,129.131 754.304,129.74C754.913,130.349 755.663,130.654 756.552,130.654C758.1,130.654 759.335,129.847 760.257,128.233C761.179,126.619 761.756,124.478 761.986,121.811L762.777,112.572C762.81,112.21 762.933,111.954 763.147,111.806C763.361,111.658 763.6,111.584 763.864,111.584L765.642,111.584C766.334,111.584 766.984,111.642 767.594,111.757C768.203,111.872 768.738,112.086 769.199,112.399C769.66,112.712 770.023,113.132 770.286,113.659C770.55,114.186 770.681,114.861 770.681,115.684C770.681,116.014 770.657,116.631 770.607,117.537C770.558,118.443 770.476,119.744 770.36,121.44C770.245,123.136 770.089,125.277 769.891,127.862C769.693,130.448 769.463,133.602 769.199,137.323C769.035,139.497 768.549,141.3 767.742,142.733C766.935,144.166 765.922,145.302 764.704,146.142C763.485,146.982 762.118,147.566 760.603,147.896C759.088,148.225 757.54,148.39 755.959,148.39C754.279,148.39 752.74,148.242 751.34,147.945C749.94,147.649 748.73,147.237 747.709,146.71C746.688,146.183 745.889,145.574 745.313,144.882C744.736,144.19 744.448,143.449 744.448,142.659C744.448,142.033 744.588,141.49 744.868,141.029C745.148,140.567 745.519,140.189 745.98,139.892C746.441,139.596 746.976,139.374 747.585,139.225C748.195,139.077 748.829,139.003 749.487,139.003C749.817,139.003 750.055,139.168 750.204,139.497C750.352,139.826 750.582,140.197 750.895,140.609C751.208,141.02 751.71,141.391 752.402,141.72C753.094,142.05 754.131,142.214 755.515,142.214C756.733,142.214 757.721,141.918 758.479,141.325C759.236,140.732 759.821,139.975 760.233,139.052C760.644,138.13 760.916,137.126 761.048,136.039C761.179,134.952 761.245,133.914 761.245,132.926C760.718,133.849 760.134,134.598 759.492,135.174C758.849,135.751 758.182,136.195 757.491,136.508C756.799,136.821 756.107,137.027 755.416,137.126C754.724,137.224 754.065,137.274 753.44,137.274C752.221,137.274 751.109,137.109 750.105,136.78C749.1,136.45 748.236,135.915 747.511,135.174C746.787,134.433 746.227,133.47 745.831,132.284C745.436,131.098 745.239,129.666 745.239,127.986C745.239,127.36 745.271,126.529 745.337,125.491C745.403,124.454 745.486,123.284 745.584,121.983C745.683,120.682 745.79,119.274 745.906,117.759C746.021,116.244 746.144,114.696 746.276,113.115C746.342,112.094 746.803,111.584 747.659,111.584L749.24,111.584C750.294,111.584 751.151,111.683 751.809,111.88C752.468,112.078 752.987,112.366 753.365,112.745C753.744,113.124 753.999,113.601 754.131,114.178C754.263,114.754 754.329,115.405 754.329,116.129Z" style="fill:rgb(183,235,228);fill-rule:nonzero;"/>
            </g>
            <g transform="matrix(0.737027,0,0,0.737027,284.626,34.177)">
                <path d="M713.176,131.543C714.526,131.543 715.67,131.345 716.609,130.95C717.548,130.555 718.346,130.11 719.005,129.616C719.664,129.122 720.249,128.678 720.759,128.282C721.27,127.887 721.788,127.69 722.315,127.69C722.974,127.69 723.303,128.184 723.303,129.172C723.303,129.699 723.237,130.333 723.106,131.074C722.974,131.815 722.793,132.646 722.562,133.569C722.431,134.129 722.109,134.738 721.599,135.397C721.088,136.055 720.388,136.673 719.499,137.249C718.61,137.826 717.515,138.303 716.214,138.682C714.913,139.061 713.423,139.25 711.743,139.25C710.063,139.25 708.383,139.003 706.704,138.509C705.024,138.015 703.525,137.175 702.208,135.989C700.89,134.804 699.82,133.206 698.997,131.197C698.173,129.188 697.762,126.669 697.762,123.638C697.762,122.552 697.836,121.292 697.984,119.859C698.132,118.426 698.42,116.953 698.848,115.437C699.277,113.922 699.878,112.432 700.652,110.966C701.426,109.501 702.422,108.192 703.641,107.039C704.859,105.886 706.35,104.956 708.112,104.248C709.874,103.539 711.973,103.185 714.411,103.185C716.354,103.185 718.042,103.416 719.475,103.877C720.907,104.338 722.093,104.972 723.032,105.779C723.97,106.586 724.662,107.533 725.107,108.62C725.551,109.707 725.773,110.859 725.773,112.078C725.773,114.186 725.156,115.726 723.921,116.697C722.686,117.669 720.932,118.155 718.659,118.155C717.935,118.155 717.482,118.097 717.301,117.982C717.12,117.866 717.029,117.628 717.029,117.265C716.996,116.146 716.963,115.174 716.93,114.351C716.897,113.527 716.782,112.844 716.584,112.3C716.387,111.757 716.082,111.362 715.67,111.115C715.259,110.868 714.691,110.744 713.966,110.744C712.912,110.744 712.015,110.966 711.274,111.411C710.532,111.856 709.907,112.432 709.396,113.14C708.886,113.848 708.474,114.647 708.161,115.536C707.848,116.426 707.601,117.331 707.42,118.253C707.239,119.176 707.124,120.065 707.074,120.921C707.025,121.778 707,122.519 707,123.144C707,126.175 707.502,128.332 708.507,129.616C709.511,130.901 711.068,131.543 713.176,131.543Z" style="fill:rgb(183,235,228);fill-rule:nonzero;"/>
                <path d="M724.884,132.679C724.884,129.715 726.218,127.393 728.886,125.713C731.554,124.034 735.49,123.128 740.693,122.996C740.726,122.634 740.751,122.329 740.768,122.082C740.784,121.835 740.792,121.531 740.792,121.168C740.792,120.114 740.595,119.274 740.199,118.649C739.804,118.023 738.981,117.71 737.729,117.71C737.038,117.71 736.478,117.809 736.049,118.006C735.621,118.204 735.275,118.476 735.012,118.822C734.748,119.167 734.534,119.587 734.37,120.081C734.205,120.575 734.057,121.119 733.925,121.712C733.859,122.008 733.711,122.198 733.48,122.28C733.25,122.362 732.888,122.403 732.394,122.403C729.034,122.403 727.354,121.135 727.354,118.599C727.354,117.578 727.593,116.607 728.071,115.684C728.548,114.762 729.256,113.964 730.195,113.288C731.134,112.613 732.311,112.078 733.727,111.683C735.144,111.288 736.791,111.09 738.668,111.09C742.324,111.09 744.975,111.847 746.622,113.362C748.269,114.878 749.092,117.018 749.092,119.785C749.092,120.147 749.051,120.798 748.969,121.736C748.886,122.675 748.787,123.663 748.672,124.701C748.557,125.738 748.458,126.718 748.376,127.64C748.293,128.562 748.252,129.205 748.252,129.567C748.252,130.39 748.4,130.975 748.697,131.321C748.993,131.667 749.331,131.905 749.71,132.037C750.088,132.169 750.426,132.268 750.722,132.334C751.019,132.399 751.167,132.564 751.167,132.828C751.167,133.552 751.068,134.293 750.871,135.051C750.673,135.808 750.352,136.5 749.907,137.126C749.463,137.751 748.853,138.262 748.079,138.657C747.305,139.052 746.358,139.25 745.239,139.25C743.658,139.25 742.472,138.871 741.681,138.114C740.891,137.356 740.364,136.302 740.101,134.952C739.31,136.105 738.281,137.109 737.013,137.966C735.745,138.822 734.09,139.25 732.048,139.25C731.06,139.25 730.129,139.135 729.256,138.904C728.384,138.674 727.626,138.295 726.984,137.768C726.342,137.241 725.831,136.558 725.452,135.718C725.074,134.878 724.884,133.865 724.884,132.679ZM740.249,127.047C739.392,127.047 738.553,127.113 737.729,127.245C736.906,127.377 736.173,127.583 735.531,127.862C734.888,128.142 734.37,128.513 733.975,128.974C733.579,129.435 733.382,129.995 733.382,130.654C733.382,131.411 733.62,131.938 734.098,132.235C734.576,132.531 735.094,132.679 735.654,132.679C736.181,132.679 736.708,132.564 737.235,132.334C737.762,132.103 738.231,131.749 738.643,131.271C739.055,130.794 739.409,130.209 739.705,129.518C740.002,128.826 740.183,128.002 740.249,127.047Z" style="fill:rgb(183,235,228);fill-rule:nonzero;"/>
                <path d="M762.826,118.253C762.727,119.505 762.62,120.74 762.505,121.959C762.39,123.177 762.283,124.33 762.184,125.417C762.085,126.504 762.011,127.475 761.962,128.332C761.912,129.188 761.888,129.847 761.888,130.308C761.888,131.164 761.986,131.732 762.184,132.012C762.382,132.292 762.711,132.432 763.172,132.432C763.534,132.432 763.847,132.366 764.111,132.235C764.374,132.103 764.621,131.955 764.852,131.79C765.082,131.625 765.288,131.477 765.469,131.345C765.651,131.214 765.856,131.148 766.087,131.148C766.317,131.148 766.532,131.28 766.729,131.543C766.927,131.807 767.026,132.416 767.026,133.371C767.026,135.182 766.532,136.615 765.543,137.669C764.555,138.723 762.859,139.25 760.455,139.25C758.084,139.25 756.33,138.698 755.193,137.595C754.057,136.492 753.489,134.804 753.489,132.531C753.489,132.037 753.514,131.452 753.563,130.777C753.612,130.102 753.687,129.221 753.785,128.134C753.884,127.047 754.008,125.713 754.156,124.133C754.304,122.552 754.461,120.592 754.625,118.253L752.007,118.253C751.743,118.253 751.587,118.196 751.538,118.081C751.488,117.965 751.463,117.792 751.463,117.562L751.612,115.042C751.645,114.614 751.702,114.194 751.785,113.782C751.867,113.371 752.032,113 752.279,112.671C752.526,112.341 752.88,112.078 753.341,111.88C753.802,111.683 754.411,111.584 755.169,111.584C755.399,110.991 755.663,110.283 755.959,109.46C756.256,108.636 756.552,107.838 756.848,107.064C757.145,106.29 757.433,105.639 757.713,105.112C757.993,104.585 758.248,104.322 758.479,104.322L759.911,104.322C761.295,104.322 762.25,104.75 762.777,105.606C763.304,106.462 763.567,107.483 763.567,108.669C763.567,109.328 763.518,110.299 763.419,111.584L768.607,111.584C769.133,111.584 769.397,111.815 769.397,112.276L769.199,114.943C769.133,115.931 768.862,116.73 768.384,117.339C767.907,117.949 766.927,118.253 765.445,118.253L762.826,118.253Z" style="fill:rgb(183,235,228);fill-rule:nonzero;"/>
            </g>
        </g>
    </g>
</svg>
