<svg width="40" height="32" viewBox="0 0 40 32" fill="none" xmlns="http://www.w3.org/2000/svg">
<path d="M40 5.3263L36.1635 8.6001C34.2874 10.2023 33.3501 12.1627 33.3501 14.4827C33.3501 15.8803 34.185 17.5007 35.8565 19.3406C37.5264 21.1821 38.3631 22.8701 38.3631 24.4047C38.3631 29.4177 35.8913 31.9242 30.9459 31.9242C25.6607 31.9242 23.0171 28.9062 23.0171 22.8701C23.0171 13.8342 27.5351 6.46816 36.5727 0.773682L40 5.3263ZM16.9812 5.3263L13.1463 8.6001C11.2701 10.2023 10.3329 12.1627 10.3329 14.4827C10.3329 15.8803 11.1679 17.5007 12.8394 19.3406C14.5093 21.1821 15.3443 22.8701 15.3443 24.4047C15.3443 29.4177 12.8724 31.9242 7.92869 31.9242C2.64179 31.9242 0 28.9062 0 22.8701C0 13.8342 4.51794 6.46816 13.5539 0.773682L16.9812 5.3263Z" fill="#F6C956"/>
</svg>
