<svg width="45" height="45" viewBox="0 0 45 45" fill="none" xmlns="http://www.w3.org/2000/svg">
<rect x="0.302795" y="0.924316" width="44" height="44" rx="8" fill="#EDF8F9"/>
<g clip-path="url(#clip0_289_277)">
<path d="M27.4946 19.5878C29.0379 20.695 30.9286 21.3464 32.9706 21.3464V17.4029C32.5842 17.403 32.1987 17.3626 31.8206 17.2822V20.3862C29.7788 20.3862 27.8883 19.7348 26.3446 18.6277V26.6752C26.3446 30.7009 23.0927 33.9642 19.0814 33.9642C17.5848 33.9642 16.1937 33.5101 15.0381 32.7314C16.357 34.0847 18.1963 34.9243 20.2312 34.9243C24.2427 34.9243 27.4947 31.661 27.4947 27.6351V19.5878H27.4946ZM28.9132 15.6093C28.1245 14.7445 27.6066 13.627 27.4946 12.3915V11.8843H26.4048C26.6791 13.4546 27.6148 14.7962 28.9132 15.6093ZM17.5752 29.6421C17.1345 29.0623 16.8964 28.3529 16.8974 27.6236C16.8974 25.7823 18.3848 24.2894 20.2199 24.2894C20.5619 24.2894 20.9018 24.3419 21.2277 24.4457V20.4141C20.8469 20.3617 20.4625 20.3395 20.0782 20.3476V23.4856C19.7521 23.3818 19.412 23.3291 19.0699 23.3295C17.2348 23.3295 15.7475 24.8222 15.7475 26.6637C15.7475 27.9657 16.491 29.093 17.5752 29.6421Z" fill="#FF004F"/>
<path d="M26.3445 18.6276C27.8883 19.7347 29.7787 20.3862 31.8206 20.3862V17.2821C30.6808 17.0385 29.6718 16.4407 28.9132 15.6093C27.6146 14.7961 26.679 13.4545 26.4047 11.8843H23.5421V27.6349C23.5357 29.4711 22.0508 30.9579 20.2197 30.9579C19.1406 30.9579 18.182 30.4417 17.5749 29.6421C16.4907 29.093 15.7473 27.9656 15.7473 26.6637C15.7473 24.8224 17.2346 23.3295 19.0697 23.3295C19.4213 23.3295 19.7601 23.3845 20.078 23.4857V20.3477C16.1373 20.4294 12.968 23.6608 12.968 27.635C12.968 29.6189 13.7572 31.4174 15.0381 32.7314C16.1937 33.5101 17.5848 33.9643 19.0815 33.9643C23.0928 33.9643 26.3446 30.7009 26.3446 26.6752V18.6276H26.3445Z" fill="black"/>
<path d="M31.8206 17.2821V16.4428C30.7928 16.4444 29.7852 16.1555 28.9132 15.6092C29.6851 16.4574 30.7016 17.0422 31.8206 17.2821ZM26.4047 11.8843C26.3786 11.7342 26.3585 11.5832 26.3445 11.4315V10.9243H22.3921V26.6751C22.3858 28.5111 20.901 29.9979 19.0697 29.9979C18.5321 29.9979 18.0244 29.8698 17.5749 29.6422C18.182 30.4418 19.1406 30.9579 20.2197 30.9579C22.0507 30.9579 23.5358 29.4712 23.5422 27.635V11.8843H26.4047ZM20.0782 20.3477V19.4542C19.7479 19.4089 19.415 19.3862 19.0816 19.3863C15.07 19.3863 11.8181 22.6497 11.8181 26.6751C11.8181 29.1988 13.0961 31.423 15.0382 32.7313C13.7573 31.4173 12.9681 29.6187 12.9681 27.6349C12.9681 23.6608 16.1373 20.4294 20.0782 20.3477Z" fill="#00F2EA"/>
</g>
<defs>
<clipPath id="clip0_289_277">
<rect x="10.3028" y="10.9243" width="24" height="24" rx="6" fill="white"/>
</clipPath>
</defs>
</svg>
